PathFileType	4	(X/Y/Z)	c:/Users/goper/Files/vsCode/490R/osim_files/C11/C11_Static_03.trc
DataRate	CameraRate	NumFrames	NumMarkers	Units                	OrigDataRate	OrigDataStartFrame	OrigNumFrames
120.00	120.00	8	36	mm	120.0	68	536
                Frame#	Time	LPSIS			LASIS			LTH1			LTH2			LTH3			LTH4			LLFE			LMFE			LSH1			LSH2			LSH3			LSH4			LLMAL			LMMAL			LCAL			LMTP5			LTOE			LMTP1			RPSIS			RASIS			RTH1			RTH2			RTH3			RTH4			RLFE			RMFE			RSH1			RSH2			RSH3			RSH4			RLMAL			RMMAL			RCAL			RMTP1			RTOE			RMTP5		
		X1	Y1	Z1	X2	Y2	Z2	X3	Y3	Z3	X4	Y4	Z4	X5	Y5	Z5	X6	Y6	Z6	X7	Y7	Z7	X8	Y8	Z8	X9	Y9	Z9	X10	Y10	Z10	X11	Y11	Z11	X12	Y12	Z12	X13	Y13	Z13	X14	Y14	Z14	X15	Y15	Z15	X16	Y16	Z16	X17	Y17	Z17	X18	Y18	Z18	X19	Y19	Z19	X20	Y20	Z20	X21	Y21	Z21	X22	Y22	Z22	X23	Y23	Z23	X24	Y24	Z24	X25	Y25	Z25	X26	Y26	Z26	X27	Y27	Z27	X28	Y28	Z28	X29	Y29	Z29	X30	Y30	Z30	X31	Y31	Z31	X32	Y32	Z32	X33	Y33	Z33	X34	Y34	Z34	X35	Y35	Z35	X36	Y36	Z36

68	0.55833	-355.25317	1009.37958	447.50525	-178.74551	1008.13153	378.96234	-309.24417	638.11407	300.55417	-308.22025	591.63910	294.76529	-249.93059	634.00665	287.08960	-257.39966	588.21149	287.26413	-293.78555	516.15210	282.76804	-275.92847	501.93466	391.24045	-355.86484	415.14633	268.75247	-356.78824	372.02240	263.02161	-294.21432	409.61902	257.70645	-304.76065	365.44891	254.62079	-342.37454	96.98750	290.58316	-305.15295	110.46060	381.74042	-396.28540	59.95496	349.20700	-234.42249	40.02925	247.41548	-156.59767	57.00583	309.83160	-192.21045	45.19347	359.58667	-353.09271	1022.97296	531.44293	-190.98047	999.90088	613.94482	-288.92563	651.03699	678.49823	-286.83380	607.15167	676.70203	-226.68112	646.62146	669.39844	-234.77856	604.25879	669.74677	-272.69040	517.24817	665.18085	-297.08521	490.97275	554.54034	-347.50412	414.93356	689.74530	-344.85599	368.71378	691.81940	-285.38330	410.29083	686.04785	-292.15570	363.67657	691.23035	-338.97476	98.41171	666.79303	-310.79050	105.62868	571.99603	-399.36276	60.31925	615.37952	-184.01831	49.18903	597.82294	-181.00775	61.96434	647.96704	-222.89883	39.03469	708.33356
69	0.56667	-355.62070	1009.45801	447.51468	-179.16376	1008.08636	378.78952	-309.64948	638.08484	300.47189	-308.56912	591.62750	294.66302	-250.24670	633.98492	287.00732	-257.75153	588.17395	287.14072	-293.99683	516.13104	282.65689	-276.24625	501.92145	391.10452	-355.58578	415.16492	268.42938	-356.98700	371.94931	262.96228	-294.54935	409.53015	257.64514	-305.03043	365.38223	254.53644	-342.36374	96.94948	290.57135	-305.12881	110.48727	381.73557	-396.28030	59.92815	349.15689	-234.43416	40.00416	247.38641	-156.59711	57.00444	309.80331	-192.21904	45.17434	359.54883	-353.37885	1023.09033	531.45837	-191.20314	999.82953	613.74286	-289.25812	651.07117	678.46918	-287.20224	607.15015	676.64740	-226.99419	646.58179	669.26135	-235.11664	604.24438	669.62604	-273.00980	517.31677	665.11908	-297.63361	490.96225	554.52808	-347.82404	414.91705	689.77246	-345.22192	368.70892	691.90369	-285.73767	410.32520	686.03314	-292.40326	363.68228	691.17609	-338.95990	98.43593	666.82300	-310.78891	105.59586	572.03333	-399.39102	60.33231	615.33014	-184.00908	49.18398	597.81451	-180.97618	61.96102	647.93945	-222.86185	39.03724	708.31982
70	0.57500	-355.92575	1009.54663	447.51382	-179.54314	1008.06183	378.61838	-310.03607	638.03943	300.40082	-308.96753	591.58942	294.60052	-250.58989	633.97943	286.92081	-258.11349	588.16864	287.00314	-294.27255	516.09735	282.55225	-277.33176	501.68463	391.05307	-355.87723	415.12762	268.35718	-357.17459	371.89548	262.89780	-294.80185	409.51462	257.57880	-305.24567	365.37747	254.46532	-342.38669	96.89967	290.56204	-305.19101	110.48697	381.73523	-396.37625	59.93421	349.16281	-234.46326	39.98653	247.36978	-156.62637	56.99911	309.76730	-192.23111	45.17746	359.53662	-353.64240	1023.18060	531.47443	-191.49020	999.73767	613.59314	-289.63672	651.11792	678.44177	-287.59921	607.18225	676.65686	-227.34845	646.57458	669.17767	-235.45338	604.23163	669.53503	-273.37189	517.37061	665.08417	-298.11041	490.94141	554.52374	-348.14194	414.92657	689.79572	-345.58685	368.73590	691.92896	-286.15048	410.34375	686.03558	-292.69580	363.70746	691.15564	-339.00018	98.46127	666.85907	-310.81659	105.57609	572.02844	-399.98041	60.40784	615.16534	-184.06111	49.17646	597.79816	-180.99738	61.96335	647.91962	-222.87993	39.02827	708.31091
71	0.58333	-356.31339	1009.70337	447.48932	-179.96834	1008.04297	378.45331	-310.41403	638.02838	300.33636	-309.37109	591.57300	294.50699	-251.03430	633.97827	286.79742	-258.52707	588.17627	286.87936	-294.55511	516.11957	282.47684	-277.69208	501.64215	390.95535	-356.16614	415.11081	268.28467	-357.41455	371.89859	262.82623	-294.99323	409.53189	257.51688	-305.45895	365.40222	254.38490	-342.36102	96.90009	290.55545	-305.20511	110.50501	381.72299	-396.38766	59.91594	349.17783	-234.45944	39.98111	247.38234	-156.66290	57.00787	309.77716	-192.24397	45.18548	359.54822	-353.90878	1023.28595	531.47839	-191.70235	999.66071	613.46490	-289.89645	651.14191	678.42688	-287.93738	607.21545	676.64307	-227.69362	646.52045	669.10382	-235.76416	604.21100	669.43713	-273.71704	517.34314	665.05408	-298.48758	490.94162	554.52136	-348.42737	414.88623	689.81403	-345.71454	368.72406	691.88184	-286.42548	410.36908	686.00073	-292.99197	363.72766	691.19678	-339.01917	98.45512	666.91132	-310.84332	105.60970	572.02991	-399.95047	60.34093	615.17719	-184.08340	49.16064	597.80688	-181.04678	61.93872	647.93591	-222.87743	39.03315	708.33167
72	0.59167	-356.61807	1009.82904	447.41092	-180.25887	1008.09253	378.29199	-310.37268	638.07416	300.30087	-309.74356	591.57312	294.40851	-251.49762	634.01050	286.66669	-258.89774	588.18304	286.75525	-294.91373	516.15930	282.37811	-277.91617	501.67368	390.89099	-356.36578	415.10889	268.19672	-357.61948	371.87460	262.75125	-295.19736	409.54099	257.51370	-305.62738	365.41034	254.36894	-342.37808	96.92544	290.54913	-305.16800	110.51346	381.69888	-396.36203	59.92033	349.19275	-234.42793	40.00061	247.38538	-156.62305	57.04050	309.79492	-192.24225	45.19311	359.57104	-355.13223	1023.72601	531.47437	-191.87193	999.61969	613.32074	-290.03973	651.15790	678.38934	-288.11920	607.22479	676.61121	-227.96370	646.49554	668.99939	-236.02040	604.19440	669.34662	-273.93982	517.33356	665.00275	-298.83099	490.97803	554.46332	-348.61929	414.84937	689.81439	-345.85587	368.65295	691.85486	-286.65701	410.38760	685.99457	-293.18265	363.76462	691.20306	-338.96207	98.43582	666.90222	-310.82242	105.62943	572.04126	-399.86295	60.26673	615.16071	-184.07614	49.16703	597.83893	-181.03702	61.95332	647.95374	-222.87372	39.06767	708.34058
73	0.60000	-356.91641	1009.95343	447.37021	-180.61710	1008.11633	378.16644	-310.82544	638.13379	300.18961	-310.11743	591.57825	294.31497	-251.86542	634.03925	286.56512	-259.29837	588.19324	286.65985	-295.23691	516.18536	282.27997	-277.45483	502.04156	390.78070	-356.54709	415.09140	268.15167	-357.87631	371.89270	262.72290	-295.39365	409.55917	257.48395	-305.77652	365.44098	254.33363	-342.37842	96.96092	290.53262	-305.17175	110.50374	381.67499	-396.42154	59.96715	349.22241	-234.42435	40.03360	247.40282	-156.63579	57.06062	309.81467	-192.24501	45.21730	359.59769	-354.36295	1023.49017	531.37933	-192.03435	999.57471	613.16992	-290.23260	651.16168	678.32812	-288.31479	607.21777	676.54230	-228.23022	646.46735	668.86865	-236.25427	604.17682	669.25391	-274.25839	517.28967	664.92902	-299.20554	491.01886	554.40369	-348.80722	414.83060	689.79932	-346.05301	368.60468	691.82330	-286.87076	410.42606	685.97430	-293.40781	363.77295	691.19287	-338.94455	98.39030	666.88696	-310.81992	105.66188	572.04132	-399.87515	60.28589	615.13263	-184.06758	49.19311	597.84644	-181.04865	61.97189	647.96594	-222.84991	39.09058	708.33215
74	0.60833	-357.22552	1010.07495	447.36917	-181.05597	1008.14917	377.98633	-311.57648	638.11053	300.02795	-310.47812	591.59198	294.20471	-252.20502	634.04395	286.49146	-259.69846	588.18060	286.59116	-295.57272	516.19788	282.20947	-277.72247	502.04712	390.74146	-356.75220	415.09595	268.13019	-358.09058	371.88834	262.70352	-295.63556	409.58682	257.45020	-305.97946	365.43890	254.28535	-342.39044	96.98300	290.53281	-305.15564	110.53993	381.65466	-396.43732	60.00893	349.20999	-234.41347	40.07415	247.39586	-156.63750	57.08195	309.81067	-192.22804	45.23234	359.57065	-354.69812	1023.62378	531.35510	-192.21892	999.52039	612.98346	-290.40335	651.19696	678.23499	-288.51147	607.25439	676.44604	-228.41280	646.49475	668.72522	-236.50090	604.14771	669.13464	-274.45914	517.30945	664.85834	-299.48557	491.05350	554.35175	-349.02350	414.84039	689.76379	-346.21097	368.63989	691.77869	-287.04370	410.45856	685.91907	-293.57516	363.81165	691.14417	-338.94537	98.44646	666.87769	-310.81299	105.69827	572.04242	-399.87476	60.34403	615.14185	-184.06596	49.20146	597.83917	-181.02882	62.00558	647.96863	-222.84827	39.11934	708.33698
75	0.61667	-357.49814	1010.17511	447.40918	-181.55103	1008.10809	377.81314	-311.95496	638.05322	299.93933	-310.83261	591.55383	294.10641	-252.59500	634.03894	286.39438	-260.11603	588.13000	286.50320	-295.84982	516.14130	282.14160	-278.63751	501.77655	390.71817	-356.95822	415.06650	268.09750	-358.28381	371.80917	262.68335	-295.91202	409.58960	257.38107	-306.20126	365.42212	254.23846	-342.39102	96.95002	290.52585	-305.15732	110.56704	381.62509	-396.42001	59.99490	349.19131	-234.39610	40.08297	247.37410	-156.61082	57.10789	309.81290	-192.22874	45.24215	359.54938	-354.96652	1023.70874	531.38873	-192.35312	999.51019	612.76727	-290.58722	651.23944	678.13025	-288.67618	607.33191	676.34210	-228.55368	646.53741	668.58447	-236.68784	604.16809	669.01630	-274.64050	517.36462	664.77197	-299.70264	491.04077	554.31421	-349.21036	414.85196	689.74316	-346.34973	368.69821	691.73688	-287.18146	410.52936	685.83588	-293.66977	363.88190	691.08594	-338.92480	98.45726	666.87958	-310.83084	105.67551	572.03900	-399.87839	60.41284	615.15295	-184.05815	49.22128	597.81055	-181.00954	62.03961	647.95148	-222.82335	39.13835	708.28888
